<svg width="165" height="43" xmlns="http://www.w3.org/2000/svg" xmlns:xlink="http://www.w3.org/1999/xlink" xml:space="preserve" overflow="hidden"><g transform="translate(-399 -259)"><path d="M114.786 149.25C118.798 150.584 121.075 152.901 121.366 156.913 121.687 161.356 119.771 164.686 116.19 167.144 114.13 168.554 111.784 169.493 109.319 169.892 104.683 170.758 99.9302 170.806 95.2771 170.032 90.5729 169.28 88.5167 166.421 89.5298 161.717 91.6261 152.028 93.8628 142.339 96.0695 132.69 96.25 131.928 96.4707 131.346 97.4436 131.276 102.72 130.804 107.965 130.012 113.281 130.914 115.209 131.194 117.084 131.755 118.848 132.58 124.866 135.589 125.468 142.7 120.152 146.712 118.517 147.851 116.703 148.709 114.786 149.25ZM100.974 152.931C100.282 156.08 99.6302 158.949 98.9682 161.828 98.7175 162.911 98.8679 163.784 100.162 163.834 103.171 163.984 106.24 163.834 108.948 162.239 110.924 161.19 111.992 158.982 111.586 156.782 111.305 154.506 109.67 153.603 107.684 152.991 105.488 152.359 103.361 153.462 100.974 152.931ZM107.654 137.133C106.722 137.755 104.946 136.271 104.364 138.216 103.753 140.393 103.361 142.63 102.81 144.877 102.629 145.629 102.89 146.321 103.723 146.351 106.972 146.532 110.222 146.572 112.87 144.255 115.518 141.938 114.635 138.548 111.386 137.494 110.161 137.225 108.908 137.104 107.654 137.133Z" fill="#1C468E" transform="matrix(1 0 0 1.01471 341.154 127.686)"/><path d="M193.272 137.675C191.437 132.66 186.773 131.426 181.998 130.955 177.577 130.58 173.129 130.678 168.728 131.245 167.374 131.228 166.23 132.246 166.09 133.593 163.483 145.448 160.774 157.314 158.137 169.17 158.026 169.601 157.806 170.072 158.387 170.614L161.858 170.614C166.271 170.614 167.565 169.611 168.548 165.298 169.12 162.77 169.701 160.203 170.243 157.745 171.015 157.566 171.818 157.566 172.59 157.745 178.959 157.966 184.997 156.913 189.641 152.148 193.633 148.056 195.299 143.141 193.272 137.675ZM185.318 144.004C184.456 148.126 180.915 150.694 176.03 150.734 172.851 150.734 172.56 150.373 173.242 147.153 173.824 144.515 174.436 141.908 174.907 139.27 174.936 138.234 175.798 137.418 176.834 137.447 176.904 137.449 176.974 137.454 177.044 137.464 178.382 137.366 179.727 137.413 181.056 137.605 184.556 138.257 186.041 140.533 185.318 144.004Z" fill="#1C468E" transform="matrix(1 0 0 1.01471 341.154 127.686)"/><path d="M157.595 131.637C149.24 128.628 141.216 129.149 134.305 135.107 127.685 140.824 125.588 148.417 126.421 156.953 126.892 161.828 128.959 165.92 133.332 168.407 138.899 171.587 144.867 171.697 150.865 169.932 152.199 169.574 153.235 168.523 153.573 167.184 154.114 165.047 154.576 162.911 155.127 160.494 153.502 161.487 151.786 162.324 150.002 162.991 144.536 164.686 139.079 162.59 137.163 158.036 134.525 151.747 138.287 141.837 144.536 138.979 149.671 136.632 154.626 137.685 159.581 140.433 159.872 139.35 160.153 138.367 160.413 137.424 161.136 134.405 160.484 132.72 157.595 131.637Z" fill="#1C468E" transform="matrix(1 0 0 1.01471 341.154 127.686)"/><path d="M73.7121 134.606C78.5432 137.016 82.6095 140.721 85.4575 145.308 87.2066 148.014 87.033 151.534 85.0262 154.054 80.9749 159.641 75.5177 164.057 69.2085 166.853 64.9758 168.859 60.3117 166.532 58.5063 161.938 61.0699 160.652 63.5341 159.177 65.8785 157.525 69.349 154.997 72.348 152.068 73.8325 147.906 75.8786 143.432 76.0592 139.019 73.7121 134.606Z" fill="#F26B55" transform="matrix(1 0 0 1.01471 341.154 127.686)"/><path d="M209.291 134.606C214.125 137.026 218.202 140.728 221.076 145.308 222.838 147.925 222.725 151.377 220.795 153.874 216.718 159.586 211.173 164.091 204.747 166.913 200.554 168.799 196.001 166.482 194.225 161.998 196.658 160.75 199.004 159.339 201.246 157.775 204.827 155.168 208.007 152.199 209.521 147.896 211.537 143.432 211.638 138.979 209.291 134.606Z" fill="#F26B55" transform="matrix(1 0 0 1.01471 341.154 127.686)"/><path d="M73.7121 134.606C76.0592 139.019 75.8385 143.422 73.8124 147.876 70.712 144.666 66.9835 142.129 62.8594 140.423 64.9959 134.716 69.8404 132.178 73.7121 134.606Z" fill="#1C468E" transform="matrix(1 0 0 1.01471 341.154 127.686)"/><path d="M209.291 134.606C211.678 139.019 211.537 143.422 209.441 147.906 206.296 144.672 202.516 142.124 198.338 140.423 199.5 137.358 201.905 134.928 204.958 133.733 206.449 133.154 208.14 133.495 209.291 134.606Z" fill="#1C468E" transform="matrix(1 0 0 1.01471 341.154 127.686)"/></g></svg>