<svg width="194" height="66" xmlns="http://www.w3.org/2000/svg" xmlns:xlink="http://www.w3.org/1999/xlink" xml:space="preserve" overflow="hidden"><g transform="translate(-143 -247)"><path d="M96.7947 65.9979C97.1424 66.1318 97.3064 66.3619 97.2901 66.868 97.2518 68.1433 97.26 69.4239 97.2656 70.6992L97.2708 72.2179 97.2708 72.8338 96.483 72.7325C95.9532 72.6514 95.4199 72.5965 94.8846 72.5682 92.6953 72.4943 90.7443 73.0253 89.5814 75.0805 89.2693 75.636 89.0449 76.3147 89.0285 76.9414 88.9792 78.5833 88.9874 80.2278 88.9958 81.9024L89.0011 83.8319 97.227 83.8319 97.227 90.5365 88.9518 90.5365C88.9518 95.588 88.9465 102.582 88.941 109.676L88.941 109.678 88.9302 125.455C88.9302 128.52 86.4426 131.002 83.3748 131.002L80.2716 131.002 80.2716 130.254 80.2798 111.452 80.2798 110.437 80.2827 103.409C80.288 94.3676 80.2935 85.397 80.2935 78.449 80.2935 76.2189 80.5069 74.016 81.4757 71.9718 83.3173 68.094 86.522 66.0746 90.7606 65.5489 92.7829 65.2973 94.8956 65.2591 96.7947 65.9979ZM220.809 75.0723C220.809 72.6986 218.885 70.7745 216.511 70.7745 214.138 70.7745 212.214 72.6986 212.214 75.0723 212.214 77.4458 214.138 79.3699 216.511 79.3699 218.885 79.3699 220.809 77.4458 220.809 75.0723ZM108.097 70.7759C110.47 70.7759 112.393 72.6995 112.393 75.0723 112.393 77.4449 110.47 79.3685 108.097 79.3685 105.724 79.3685 103.8 77.4449 103.8 75.0723 103.8 72.6995 105.724 70.7759 108.097 70.7759ZM262.574 81.1009C262.574 78.0631 265.037 75.573 268.028 75.573 271.016 75.573 273.482 78.0687 273.482 81.1009 273.482 84.1384 271.063 86.6315 267.954 86.6315 265.037 86.6315 262.571 84.1083 262.571 81.1035ZM272.174 81.1009C272.174 78.7117 270.324 76.7907 268.025 76.7907 265.729 76.7907 263.893 78.7146 263.893 81.1009 263.893 83.4898 265.727 85.4137 268.102 85.4137 270.327 85.4137 272.174 83.4597 272.174 81.1009ZM265.852 78.1863 268.342 78.1863C269.574 78.1863 270.373 78.8623 270.373 79.9596 270.373 80.7997 269.831 81.4456 268.901 81.6427L270.48 83.9714 269.051 83.9714 267.639 81.7165 267.054 81.7165 267.054 83.9714 265.852 83.9714 265.852 78.1863ZM269.183 79.9759C269.183 79.5247 268.854 79.2672 268.28 79.2672L267.048 79.2672 267.048 80.6957 268.28 80.6957C268.854 80.6957 269.183 80.4249 269.183 79.9759ZM253.877 83.7799 253.877 102.815 253.902 102.815 253.902 111.933C253.902 116.077 253.081 119.174 251.461 121.144 250.609 122.172 249.49 122.944 248.226 123.375 247.018 123.789 245.749 124.002 244.472 124.004L244.343 124.004C243.476 123.986 242.613 123.884 241.765 123.7L241.637 123.668 241.514 123.64 241.281 123.577C241.233 123.564 241.186 123.551 241.139 123.536L241.092 123.523C239.56 123.065 238.342 122.28 237.414 121.15 235.794 119.18 234.973 116.082 234.973 111.936L234.973 83.777 226.29 83.777 226.29 102.815 226.318 102.815 226.318 112.921C226.318 118.805 227.74 123.323 230.554 126.357 233.044 129.05 236.544 130.572 240.961 130.9L240.988 130.903 241.043 130.908 241.128 130.911C242.247 130.971 243.367 131.002 244.488 131.002 245.189 131.002 245.873 130.988 246.535 130.963 247.082 130.954 247.629 130.927 248.174 130.881L248.284 130.873 248.284 130.87C252.525 130.484 255.897 128.974 258.321 126.36 261.132 123.326 262.56 118.802 262.56 112.921L262.56 83.7744 253.877 83.7744ZM103.8 83.7799 112.393 83.7799 112.393 131.062 103.8 131.062 103.8 83.7799ZM220.809 83.7799 212.214 83.7799 212.214 131.062 220.809 131.062 220.809 83.7799ZM155.11 87.0746C152.119 83.9521 147.839 82.3677 142.394 82.3677 138.617 82.3677 135.257 83.1888 132.403 84.8059 130.416 85.9309 128.763 87.3673 127.449 89.0834 127.404 86.0518 124.934 83.6182 121.903 83.6185L118.796 83.6185 118.796 131.002 127.485 131.002 127.485 103.896C127.485 101.017 128.005 98.4696 129.039 96.3213 130.052 94.2144 131.519 92.5532 133.396 91.3818 135.279 90.2081 137.55 89.6141 140.147 89.6141 143.707 89.6141 146.416 90.5829 148.201 92.5012 150.001 94.4385 150.918 97.5145 150.918 101.644L150.918 130.999 159.604 130.999 159.604 100.566C159.604 94.7205 158.093 90.1806 155.116 87.0719L155.11 87.0719ZM188.989 82.3677C194.437 82.3677 198.717 83.9521 201.711 87.0746L201.708 87.0693C204.688 90.178 206.196 94.7179 206.196 100.563L206.196 130.996 197.513 130.996 197.513 101.644C197.513 97.5116 196.599 94.4359 194.796 92.4986 193.011 90.5829 190.302 89.6114 186.742 89.6114 184.145 89.6114 181.874 90.2052 179.993 91.3792 178.096 92.5719 176.584 94.287 175.637 96.3186 174.603 98.4667 174.077 101.014 174.077 103.893L174.077 130.999 165.391 130.999 165.391 83.8044C165.687 83.8044 165.977 83.8263 166.267 83.8564L168.497 83.8564C171.461 83.8564 173.875 86.1714 174.036 89.0968 175.382 87.3443 177.071 85.8842 179 84.8059 181.854 83.1915 185.215 82.3707 188.989 82.3707Z" fill="#111261" fill-rule="evenodd" transform="matrix(1 0 0 1.00492 62.7284 181.293)"/></g></svg>